<?xml version="1.0" standalone="no"?>
<!DOCTYPE svg PUBLIC "-//W3C//DTD SVG 20010904//EN"
 "http://www.w3.org/TR/2001/REC-SVG-20010904/DTD/svg10.dtd">
<svg version="1.0" xmlns="http://www.w3.org/2000/svg"
 width="1280.000000pt" height="640.000000pt" viewBox="0 0 1280.000000 640.000000"
 preserveAspectRatio="xMidYMid meet">

<g transform="translate(0.000000,640.000000) scale(0.100000,-0.100000)"
fill="#000000" stroke="none">
<path d="M3878 5899 c-117 -14 -291 -62 -408 -112 -95 -41 -224 -109 -175 -92
11 4 88 24 170 45 243 62 407 73 528 34 60 -20 158 -109 206 -188 151 -251
148 -698 -10 -1231 -22 -76 -39 -138 -37 -140 2 -1 47 -10 101 -19 80 -13 191
-48 288 -90 14 -6 20 7 39 86 135 583 112 1088 -63 1397 -53 94 -162 206 -243
248 -104 55 -254 79 -396 62z"/>
<path d="M117 4803 c59 -87 300 -439 535 -783 l428 -625 0 -622 0 -623 295 0
295 0 0 624 0 623 539 779 539 779 -331 3 c-183 1 -337 0 -342 -2 -6 -2 -168
-243 -359 -535 -192 -292 -351 -529 -354 -527 -2 3 -158 243 -346 533 l-342
528 -332 3 -333 2 108 -157z"/>
<path d="M2900 4000 l0 -210 503 0 c276 0 518 -3 538 -6 l36 -6 48 118 c44
112 115 302 115 310 0 2 -279 4 -620 4 l-620 0 0 -210z"/>
<path d="M5350 3180 l0 -1030 275 0 275 0 0 805 0 805 320 0 320 0 0 -805 0
-805 275 0 275 0 0 805 0 805 205 0 c283 0 361 -20 409 -102 44 -78 46 -111
46 -828 l0 -680 275 0 275 0 0 688 c0 406 -4 722 -10 772 -40 332 -189 495
-525 573 -88 21 -113 21 -1252 24 l-1163 4 0 -1031z"/>
<path d="M9520 4199 c-134 -17 -251 -50 -353 -102 -90 -44 -114 -63 -202 -151
-113 -114 -166 -198 -220 -348 -102 -285 -98 -601 11 -868 49 -122 115 -220
214 -320 78 -79 111 -104 185 -142 203 -103 252 -110 848 -115 l487 -5 0 221
0 221 -392 0 c-525 1 -582 12 -709 139 -108 109 -151 236 -151 451 0 155 19
251 69 350 60 118 144 174 322 217 52 12 151 16 464 20 l397 5 0 219 0 219
-452 -1 c-249 -1 -482 -5 -518 -10z"/>
<path d="M11326 4199 c-284 -41 -447 -170 -511 -404 -25 -92 -31 -291 -11
-403 39 -223 137 -328 351 -375 114 -25 178 -29 578 -36 381 -6 382 -6 432
-31 57 -28 90 -72 100 -130 16 -94 -21 -170 -100 -210 l-50 -25 -645 -5 -645
-5 -3 -212 -2 -213 737 0 c800 0 802 0 919 56 68 32 160 116 210 192 104 157
137 410 78 612 -54 186 -199 316 -417 371 -74 19 -121 22 -472 28 l-390 6 -49
25 c-63 32 -86 73 -86 155 0 104 41 151 155 176 31 6 270 13 618 16 l567 5 0
209 0 209 -652 -1 c-359 -1 -680 -5 -712 -10z"/>
<path d="M4518 3951 c-71 -249 -199 -574 -324 -823 -35 -70 -64 -130 -64 -133
0 -3 41 -5 90 -5 l90 0 0 -215 0 -215 -213 0 -212 0 -125 -186 c-69 -102 -131
-195 -139 -205 -13 -19 -1 -19 618 -19 l631 0 0 658 c0 361 -5 698 -10 747
-17 164 -59 280 -138 384 -41 54 -138 141 -157 141 -5 0 -27 -58 -47 -129z"/>
<path d="M3970 3756 c-4 -11 -42 -95 -84 -185 -42 -90 -76 -165 -76 -167 0 -2
110 -4 245 -4 l245 0 0 63 c0 176 -84 271 -269 305 -49 9 -53 8 -61 -12z"/>
<path d="M3365 3389 c-415 -47 -596 -239 -597 -634 0 -144 18 -231 68 -327 37
-69 118 -154 182 -191 l32 -18 98 133 c187 253 204 281 192 312 -5 15 -10 60
-10 99 0 85 23 144 68 176 32 22 158 58 168 48 7 -7 -4 -27 -124 -215 -82
-129 -84 -133 -67 -153 35 -38 105 -49 315 -49 l196 0 71 123 c40 67 93 161
118 210 l47 87 -271 0 c-149 0 -271 2 -271 5 0 3 28 56 63 118 35 61 85 151
111 200 l47 87 -178 -1 c-98 -1 -214 -6 -258 -10z"/>
<path d="M712 2182 c-72 -221 -96 -406 -89 -685 5 -212 17 -306 62 -462 156
-544 596 -671 1268 -366 373 169 856 552 1245 986 114 127 322 380 380 463
l23 32 -153 0 c-168 0 -239 9 -337 43 l-63 21 -21 -28 c-11 -16 -59 -74 -105
-130 -509 -612 -1032 -1018 -1460 -1132 -129 -34 -285 -37 -382 -6 -251 81
-372 323 -387 773 -6 179 6 338 37 490 11 51 18 94 16 96 -1 2 -17 -41 -34
-95z"/>
</g>
</svg>
