<?xml version="1.0" encoding="UTF-8" standalone="no"?>
<!-- Created with Inkscape (http://www.inkscape.org/) -->

<svg
   xmlns:dc="http://purl.org/dc/elements/1.1/"
   xmlns:cc="http://creativecommons.org/ns#"
   xmlns:rdf="http://www.w3.org/1999/02/22-rdf-syntax-ns#"
   xmlns:svg="http://www.w3.org/2000/svg"
   xmlns="http://www.w3.org/2000/svg"
   xmlns:sodipodi="http://sodipodi.sourceforge.net/DTD/sodipodi-0.dtd"
   xmlns:inkscape="http://www.inkscape.org/namespaces/inkscape"
   id="svg3020"
   version="1.1"
   inkscape:version="0.92.2 5c3e80d, 2017-08-06"
   width="10629.921"
   height="4429.1338"
   xml:space="preserve"
   sodipodi:docname="yamcs_inkscape.svg"
   enable-background="new"><metadata
     id="metadata3026"><rdf:RDF><cc:Work
         rdf:about=""><dc:format>image/svg+xml</dc:format><dc:type
           rdf:resource="http://purl.org/dc/dcmitype/StillImage" /><dc:title></dc:title></cc:Work></rdf:RDF></metadata><defs
     id="defs3024"><clipPath
       clipPathUnits="userSpaceOnUse"
       id="clipPath3036"><path
         d="m 0,0 14670,0 0,6130.75 -14670,0 L 0,0 z"
         id="path3038"
         inkscape:connector-curvature="0" /></clipPath><clipPath
       clipPathUnits="userSpaceOnUse"
       id="clipPath3046"><path
         d="m 1094.78,1902.92 12607,0 0,3325.07 -12607,0 0,-3325.07 z"
         id="path3048"
         inkscape:connector-curvature="0" /></clipPath><clipPath
       clipPathUnits="userSpaceOnUse"
       id="clipPath3108"><path
         d="m 1094,1902 0,3327 12609,0 0,-3327 -12609,0 z"
         id="path3110"
         inkscape:connector-curvature="0" /></clipPath><clipPath
       clipPathUnits="userSpaceOnUse"
       id="clipPath3114"><path
         d="M 9931.38,5173.66 C 10308.7,4909.39 10191.5,3982.29 9617.48,3098.48 9043.41,2214.65 8229.73,1708.8 7852.46,1973.06 c -222.26,155.7 -265.51,712.49 -103.4,1063.17 -88.24,-303.84 -64.16,-717.48 105.4,-836.25 326.61,-228.81 997.72,267.74 1517.43,1067.86 519.7,800.12 725.21,1637.71 395.33,1861.46 -101.38,68.79 -340.71,11.89 -503.54,-46.71 227.56,141.38 516.35,197.12 667.7,91.07 z"
         id="path3116"
         inkscape:connector-curvature="0" /></clipPath><clipPath
       clipPathUnits="userSpaceOnUse"
       id="clipPath3120"><path
         d="m 7586.46,5280.59 2723.24,0 0,-3573.42 -2723.24,0 0,3573.42 z"
         id="path3122"
         inkscape:connector-curvature="0" /></clipPath><clipPath
       clipPathUnits="userSpaceOnUse"
       id="clipPath3126"><path
         d="m 7586.46,5227.99 2723.24,0 0,-3520.39 -2723.24,0 0,3520.39 z"
         id="path3128"
         inkscape:connector-curvature="0" /></clipPath><clipPath
       clipPathUnits="userSpaceOnUse"
       id="clipPath3132"><path
         d="m 7586.46,5229.27 2724.94,0 0,-3522.1 -2724.94,0 0,3522.1 z"
         id="path3134"
         inkscape:connector-curvature="0" /></clipPath><clipPath
       clipPathUnits="userSpaceOnUse"
       id="clipPath3142"><path
         d="m 1094.78,1902.92 12607,0 0,3325.07 -12607,0 0,-3325.07 z"
         id="path3144"
         inkscape:connector-curvature="0" /></clipPath><clipPath
       clipPathUnits="userSpaceOnUse"
       id="clipPath3152"><path
         d="m 1094.78,1902.92 12608.1,0 0,3325.07 -12608.1,0 0,-3325.07 z"
         id="path3154"
         inkscape:connector-curvature="0" /></clipPath><clipPath
       clipPathUnits="userSpaceOnUse"
       id="clipPath3166"><path
         d="m 1094.78,1902.92 0,3325.07 12608.12,0 0,-3325.07 -12608.12,0 z"
         id="path3168"
         inkscape:connector-curvature="0" /></clipPath><filter
       inkscape:collect="always"
       style="color-interpolation-filters:sRGB"
       id="filter390"
       inkscape:label="filter390"><feComposite
         in2="SourceGraphic"
         id="feComposite400"
         operator=""
         in="BackgroundImage" /></filter></defs><sodipodi:namedview
     pagecolor="#ffffff"
     bordercolor="#666666"
     borderopacity="1"
     objecttolerance="10"
     gridtolerance="10"
     guidetolerance="10"
     inkscape:pageopacity="0"
     inkscape:pageshadow="2"
     inkscape:window-width="1280"
     inkscape:window-height="756"
     id="namedview3022"
     showgrid="true"
     units="m"
     fit-margin-top="0"
     fit-margin-left="0"
     fit-margin-right="0"
     fit-margin-bottom="0"
     showborder="true"
     inkscape:zoom="0.046667729"
     inkscape:cx="5113.1416"
     inkscape:cy="805.69742"
     inkscape:window-x="409"
     inkscape:window-y="0"
     inkscape:window-maximized="0"
     inkscape:current-layer="g5366"
     showguides="false"><inkscape:grid
       type="xygrid"
       id="grid3180"
       empspacing="5"
       visible="true"
       enabled="true"
       snapvisiblegridlinesonly="true"
       originx="-800"
       originy="-639.99991"
       spacingx="1"
       spacingy="1" /></sodipodi:namedview><g
     inkscape:groupmode="layer"
     id="layer4"
     inkscape:label="bg"
     style="display:none"><rect
       style="fill:#ff00ff;fill-opacity:1;stroke:none"
       id="rect5279"
       width="13920"
       height="7200"
       x="-1120"
       y="-1010.8663" /></g><g
     id="g3028"
     inkscape:groupmode="layer"
     inkscape:label="curve"
     transform="matrix(1.25,0,0,-1.25,0.00227,4422.3645)"
     style="display:none"><path
       inkscape:connector-curvature="0"
       id="path3102"
       style="fill:#3b4a89;fill-opacity:1;fill-rule:nonzero;stroke:none;stroke-width:1.00021458"
       d="M 2808.2957,3401.8025 C 3185.6967,3137.4757 3068.4716,2210.1768 2494.3283,1326.1773 1920.1351,442.15771 1106.2806,-63.800728 728.9296,200.51581 506.62186,356.24924 463.36256,913.15871 625.50746,1263.9139 537.24846,960.00879 561.33356,546.27998 730.93004,427.48455 1057.61,198.62555 1728.8641,695.282 2248.6857,1495.5737 c 519.8115,800.2915 725.3656,1638.0613 395.4147,1861.8593 -101.4017,68.8047 -340.783,11.8925 -503.6481,-46.7201 227.609,141.4104 516.461,197.1624 667.8434,91.0896"
       inkscape:export-xdpi="96"
       inkscape:export-ydpi="96" /><g
       id="g3148"
       transform="matrix(0.584594,0,0,0.584594,-73.023653,0)"><g
         clip-path="url(#clipPath3152)"
         id="g3150"><g
           transform="scale(1.71059)"
           id="g3156"><text
             style="line-height:0%"
             id="text3158"
             transform="matrix(1,0,0,-1,2468.08,596.537)"><tspan
               id="tspan3160"
               sodipodi:role="line"
               y="0"
               x="0 215.98711 215.953 215.953 215.953 215.953 215.953 215.953 432.20273 623.995 623.995 3077.9094 3162.1594 3307.6768 3469.03"
               style="font-variant:normal;font-weight:normal;font-size:264px;line-height:1.25;font-family:'DejaVu Sans';-inkscape-font-specification:DejaVuSans;writing-mode:lr-tb;fill:#000000;fill-opacity:1;fill-rule:nonzero;stroke:none">wwwww.www.w.com</tspan></text>
</g></g></g><g
       id="g3162"
       transform="matrix(0.584594,0,0,0.584594,-73.023653,0)"><g
         clip-path="url(#clipPath3166)"
         id="g3164"><g
           transform="scale(1.71059)"
           id="g3170"><text
             style="line-height:0%"
             id="text3172"
             transform="matrix(1,0,0,-1,2468.04,611.148)"><tspan
               id="tspan3174"
               sodipodi:role="line"
               y="0"
               x="0 215.952 432.168 623.99298 707.94501 845.75391 1013.3939 1175.226 1320.6902 1483.0502 1645.1465 1812.7865 1980.4265 2053.5557 2126.9478 2272.4109 2434.2429 2537.9939 2611.1216 2772.6897 2940.3296 3077.8738 3162.0906 3307.5554 3468.8586"
               style="font-variant:normal;font-weight:normal;font-size:264px;line-height:1.25;font-family:'DejaVu Sans';-inkscape-font-specification:DejaVuSans;writing-mode:lr-tb;fill:#000000;fill-opacity:1;fill-rule:nonzero;stroke:none">www.spaceapplications.com</tspan></text>
</g></g></g><flowRoot
       xml:space="preserve"
       id="flowRoot130"
       style="font-style:normal;font-weight:normal;font-size:40px;line-height:1.25;font-family:sans-serif;letter-spacing:0px;word-spacing:0px;fill:#000000;fill-opacity:1;stroke:none"
       transform="matrix(0.8,0,0,-0.8,-0.001816,3537.8916)"><flowRegion
         id="flowRegion132"><rect
           id="rect134"
           width="3040"
           height="480"
           x="960"
           y="1709.1337" /></flowRegion><flowPara
         id="flowPara136"></flowPara></flowRoot><path
       inkscape:connector-curvature="0"
       id="path285"
       style="font-style:normal;font-variant:normal;font-weight:normal;font-stretch:normal;font-size:1410.8503418px;line-height:1.25;font-family:'HandelGothic BT';-inkscape-font-specification:'HandelGothic BT';letter-spacing:0px;word-spacing:0px;fill:#3b4a89;fill-opacity:1;stroke:none;stroke-width:2.03418779"
       d="m 384.99526,2875.5852 h 410.17485 l 427.85479,-661.2302 433.7482,661.2302 h 423.1401 L 1410.4324,1907.9026 V 1142.95 h -364.2069 v 764.9526 z"
       inkscape:export-xdpi="96"
       inkscape:export-ydpi="96" /><path
       inkscape:connector-curvature="0"
       id="path289"
       style="font-style:normal;font-variant:normal;font-weight:normal;font-stretch:normal;font-size:1410.8503418px;line-height:1.25;font-family:'HandelGothic BT';-inkscape-font-specification:'HandelGothic BT';letter-spacing:0px;word-spacing:0px;fill:#3b4a89;fill-opacity:1;stroke:none;stroke-width:2.03418779"
       d="m 3443.6269,2414.7277 h 1289.4578 q 280.5218,0 404.2814,-109.6156 123.7598,-109.6156 123.7598,-355.9563 V 1142.95 h -338.2765 v 762.5952 q 0,140.2609 -42.4319,185.0502 -42.4319,44.7892 -174.4421,44.7892 H 4517.3893 V 1142.95 h -342.9911 v 992.4346 h -392.495 V 1142.95 h -338.2763 z"
       inkscape:export-xdpi="96"
       inkscape:export-ydpi="96" /><path
       inkscape:connector-curvature="0"
       id="path291"
       style="font-style:normal;font-variant:normal;font-weight:normal;font-stretch:normal;font-size:1410.8503418px;line-height:1.25;font-family:'HandelGothic BT';-inkscape-font-specification:'HandelGothic BT';letter-spacing:0px;word-spacing:0px;fill:#3b4a89;fill-opacity:1;stroke:none;stroke-width:2.03418779"
       d="m 6253.5607,1415.2212 h 357.135 V 1142.95 H 6154.553 q -173.2635,0 -285.2365,35.36 -110.7945,36.5385 -193.3009,116.6875 -88.3998,87.2211 -139.0823,212.1595 -49.5039,126.117 -49.5039,266.3779 0,147.333 49.5039,274.6286 49.5038,128.4743 139.0823,214.5167 83.6851,80.1491 195.6582,115.5091 113.1517,36.5384 282.8792,36.5384 h 456.1427 v -274.6286 h -357.135 q -236.9114,0 -326.4897,-82.5064 -89.5785,-81.3277 -89.5785,-284.0578 0,-116.6877 36.5385,-193.3009 36.5387,-76.613 113.1517,-123.7596 37.7173,-22.3945 87.2211,-31.8239 50.6826,-9.4293 179.1569,-9.4293 z"
       inkscape:export-xdpi="96"
       inkscape:export-ydpi="96" /><path
       inkscape:connector-curvature="0"
       id="path293"
       style="font-style:normal;font-variant:normal;font-weight:normal;font-stretch:normal;font-size:1410.8503418px;line-height:1.25;font-family:'HandelGothic BT';-inkscape-font-specification:'HandelGothic BT';letter-spacing:0px;word-spacing:0px;fill:#3b4a89;fill-opacity:1;stroke:none;stroke-width:2.03418779"
       d="m 6813.4255,1408.1492 h 708.3767 q 94.2931,0 136.725,29.4666 43.6106,29.4666 43.6106,94.2931 0,64.8264 -43.6106,94.293 -43.6105,30.6453 -136.725,30.6453 h -289.9511 q -258.1273,0 -348.8845,78.9705 -90.7571,78.9704 -90.7571,280.5218 0,205.0875 109.6158,301.7379 109.6157,96.6503 339.455,96.6503 h 721.3421 v -265.1991 h -592.8678 q -144.9756,0 -188.5861,-25.9306 -43.6106,-24.7521 -43.6106,-89.5785 0,-58.9332 37.7173,-87.2211 38.8959,-27.1092 121.4023,-27.1092 h 304.0952 q 208.6233,0 318.2392,-97.8291 109.6156,-96.6505 109.6156,-280.522 0,-176.7993 -97.829,-287.5938 Q 7834.1481,1142.95 7680.9217,1142.95 h -867.4962 z"
       inkscape:export-xdpi="96"
       inkscape:export-ydpi="96" /></g><g
     style="display:inline"
     transform="matrix(1.25,0,0,-1.25,0.00227,4422.3645)"
     inkscape:label="curve copy"
     inkscape:groupmode="layer"
     id="g5366"><g
       transform="matrix(0.584594,0,0,0.584594,-73.023653,0)"
       id="g5338"><g
         id="g5336"
         clip-path="url(#clipPath3152)"><g
           id="g5334"
           transform="scale(1.71059)"><text
             transform="matrix(1,0,0,-1,2468.08,596.537)"
             id="text5332"
             style="line-height:0%"><tspan
               style="font-variant:normal;font-weight:normal;font-size:264px;line-height:1.25;font-family:'DejaVu Sans';-inkscape-font-specification:DejaVuSans;writing-mode:lr-tb;fill:#000000;fill-opacity:1;fill-rule:nonzero;stroke:none"
               x="0 215.98711 215.953 215.953 215.953 215.953 215.953 215.953 432.20273 623.995 623.995 3077.9094 3162.1594 3307.6768 3469.03"
               y="0"
               sodipodi:role="line"
               id="tspan5330">wwwww.www.w.com</tspan></text>
</g></g></g><g
       transform="matrix(0.584594,0,0,0.584594,-73.023653,0)"
       id="g5348"><g
         id="g5346"
         clip-path="url(#clipPath3166)"><g
           id="g5344"
           transform="scale(1.71059)"><text
             transform="matrix(1,0,0,-1,2468.04,611.148)"
             id="text5342"
             style="line-height:0%"><tspan
               style="font-variant:normal;font-weight:normal;font-size:264px;line-height:1.25;font-family:'DejaVu Sans';-inkscape-font-specification:DejaVuSans;writing-mode:lr-tb;fill:#000000;fill-opacity:1;fill-rule:nonzero;stroke:none"
               x="0 215.952 432.168 623.99298 707.94501 845.75391 1013.3939 1175.226 1320.6902 1483.0502 1645.1465 1812.7865 1980.4265 2053.5557 2126.9478 2272.4109 2434.2429 2537.9939 2611.1216 2772.6897 2940.3296 3077.8738 3162.0906 3307.5554 3468.8586"
               y="0"
               sodipodi:role="line"
               id="tspan5340">www.spaceapplications.com</tspan></text>
</g></g></g><flowRoot
       transform="matrix(0.8,0,0,-0.8,-0.001816,3537.8916)"
       style="font-style:normal;font-weight:normal;font-size:40px;line-height:1.25;font-family:sans-serif;letter-spacing:0px;word-spacing:0px;fill:#000000;fill-opacity:1;stroke:none"
       id="flowRoot5356"
       xml:space="preserve"><flowRegion
         id="flowRegion5352"><rect
           y="1709.1337"
           x="960"
           height="480"
           width="3040"
           id="rect5350" /></flowRegion><flowPara
         id="flowPara5354"></flowPara></flowRoot><path
       inkscape:export-ydpi="96"
       inkscape:export-xdpi="96"
       d="m 152.99526,2877.1852 h 410.17485 l 427.85479,-661.2302 433.7482,661.2302 h 423.1401 L 1178.4324,1909.5026 V 1144.55 H 814.2255 v 764.9526 z"
       style="font-style:normal;font-variant:normal;font-weight:normal;font-stretch:normal;font-size:1410.8503418px;line-height:1.25;font-family:'HandelGothic BT';-inkscape-font-specification:'HandelGothic BT';letter-spacing:0px;word-spacing:0px;fill:#3b4a89;fill-opacity:1;stroke:none;stroke-width:2.03418779"
       id="path5358"
       inkscape:connector-curvature="0" /><path
       inkscape:export-ydpi="96"
       inkscape:export-xdpi="96"
       d="m 3443.6269,2414.7277 h 1289.4578 q 280.5218,0 404.2814,-109.6156 123.7598,-109.6156 123.7598,-355.9563 V 1142.95 h -338.2765 v 762.5952 q 0,140.2609 -42.4319,185.0502 -42.4319,44.7892 -174.4421,44.7892 H 4517.3893 V 1142.95 h -342.9911 v 992.4346 h -392.495 V 1142.95 h -338.2763 z"
       style="font-style:normal;font-variant:normal;font-weight:normal;font-stretch:normal;font-size:1410.8503418px;line-height:1.25;font-family:'HandelGothic BT';-inkscape-font-specification:'HandelGothic BT';letter-spacing:0px;word-spacing:0px;fill:#3b4a89;fill-opacity:1;stroke:none;stroke-width:2.03418779"
       id="path5360"
       inkscape:connector-curvature="0" /><path
       inkscape:export-ydpi="96"
       inkscape:export-xdpi="96"
       d="m 6253.5607,1415.2212 h 357.135 V 1142.95 H 6154.553 q -173.2635,0 -285.2365,35.36 -110.7945,36.5385 -193.3009,116.6875 -88.3998,87.2211 -139.0823,212.1595 -49.5039,126.117 -49.5039,266.3779 0,147.333 49.5039,274.6286 49.5038,128.4743 139.0823,214.5167 83.6851,80.1491 195.6582,115.5091 113.1517,36.5384 282.8792,36.5384 h 456.1427 v -274.6286 h -357.135 q -236.9114,0 -326.4897,-82.5064 -89.5785,-81.3277 -89.5785,-284.0578 0,-116.6877 36.5385,-193.3009 36.5387,-76.613 113.1517,-123.7596 37.7173,-22.3945 87.2211,-31.8239 50.6826,-9.4293 179.1569,-9.4293 z"
       style="font-style:normal;font-variant:normal;font-weight:normal;font-stretch:normal;font-size:1410.8503418px;line-height:1.25;font-family:'HandelGothic BT';-inkscape-font-specification:'HandelGothic BT';letter-spacing:0px;word-spacing:0px;fill:#3b4a89;fill-opacity:1;stroke:none;stroke-width:2.03418779"
       id="path5362"
       inkscape:connector-curvature="0" /><path
       inkscape:export-ydpi="96"
       inkscape:export-xdpi="96"
       d="m 6813.4255,1408.1492 h 708.3767 q 94.2931,0 136.725,29.4666 43.6106,29.4666 43.6106,94.2931 0,64.8264 -43.6106,94.293 -43.6105,30.6453 -136.725,30.6453 h -289.9511 q -258.1273,0 -348.8845,78.9705 -90.7571,78.9704 -90.7571,280.5218 0,205.0875 109.6158,301.7379 109.6157,96.6503 339.455,96.6503 h 721.3421 v -265.1991 h -592.8678 q -144.9756,0 -188.5861,-25.9306 -43.6106,-24.7521 -43.6106,-89.5785 0,-58.9332 37.7173,-87.2211 38.8959,-27.1092 121.4023,-27.1092 h 304.0952 q 208.6233,0 318.2392,-97.8291 109.6156,-96.6505 109.6156,-280.522 0,-176.7993 -97.829,-287.5938 Q 7834.1481,1142.95 7680.9217,1142.95 h -867.4962 z"
       style="font-style:normal;font-variant:normal;font-weight:normal;font-stretch:normal;font-size:1410.8503418px;line-height:1.25;font-family:'HandelGothic BT';-inkscape-font-specification:'HandelGothic BT';letter-spacing:0px;word-spacing:0px;fill:#3b4a89;fill-opacity:1;stroke:none;stroke-width:2.03418779"
       id="path5364"
       inkscape:connector-curvature="0" /></g><g
     inkscape:groupmode="layer"
     id="layer1"
     inkscape:label="a"
     style="display:none;opacity:1;filter:url(#filter390)"><path
       inkscape:connector-curvature="0"
       id="path287"
       style="font-style:normal;font-variant:normal;font-weight:normal;font-stretch:normal;font-size:1410.8503418px;line-height:1.25;font-family:'HandelGothic BT';-inkscape-font-specification:'HandelGothic BT';letter-spacing:0px;word-spacing:0px;display:inline;fill:#3b4a89;fill-opacity:1;stroke:none;stroke-width:2.54273462"
       d="m 2977.0663,2673.9645 h 525.9785 V 2345.412 h -495.0386 q -147.333,0 -203.3195,39.7799 -55.9866,39.78 -55.9866,138.4929 0,83.9799 44.2,117.8665 45.6731,32.4132 184.1662,32.4132 z M 2418.6745,1403.9547 h 860.4243 q 325.6056,0 490.6185,150.2794 165.013,148.8063 165.013,443.4723 v 995.9705 H 2806.16 q -237.2061,0 -365.3855,-119.3396 -126.7064,-119.3398 -126.7064,-338.8657 0,-271.0926 145.8595,-388.9591 147.3329,-117.8662 487.672,-117.8662 h 552.4985 v -39.78 q 0,-141.4396 -83.9797,-198.8995 -82.5064,-57.4598 -296.1391,-57.4598 h -701.3048 z"
       inkscape:export-xdpi="96"
       inkscape:export-ydpi="96" /></g><g
     inkscape:groupmode="layer"
     id="layer3"
     inkscape:label="intersect between curve and a"
     style="display:none"><path
       style="display:inline;fill:#ffffff;fill-opacity:1;fill-rule:nonzero;stroke:none;stroke-width:1.25026822"
       d="m 3376.0384,1407.5584 c -35.316,107.2178 -77.5477,218.1796 -126.2398,331.5647 74.521,8.5859 129.9726,25.5305 166.3203,50.8441 55.9864,38.3066 83.9806,104.6054 83.9806,198.8986 v 39.7797 h -386.1481 c -53.7267,105.7209 -112.4624,212.5213 -175.8775,319.424 21.2893,-1.7655 44.5884,-2.6566 69.9319,-2.6566 h 354.258 c 151.2749,-291.7479 262.3033,-579.4975 332.1929,-846.9834 -84.345,-50.685 -190.4833,-80.9766 -318.4183,-90.8711 z M 2769.6048,2615.5 c -75.8027,113.4696 -153.9438,221.7399 -233.482,324.0157 73.536,36.0888 163.5308,54.1623 270.0371,54.1623 h 153.9125 c 53.9313,-73.8262 106.6486,-150.2222 157.8389,-229.0342 19.6089,-30.1913 38.7658,-60.4263 57.521,-90.6806 h -198.3674 c -92.3287,0 -153.7162,-10.8025 -184.1649,-32.4112 -9.2022,-7.0549 -16.9667,-15.7401 -23.2952,-26.052 z"
       id="path5177"
       inkscape:connector-curvature="0"
       inkscape:export-xdpi="96"
       inkscape:export-ydpi="96" /></g><g
     style="display:none"
     inkscape:label="intersect between curve and a copy"
     id="g5322"
     inkscape:groupmode="layer" /><g
     inkscape:groupmode="layer"
     id="layer8"
     inkscape:label="curve cutout"><path
       style="display:inline;fill:#3b4a89;fill-opacity:1;fill-rule:nonzero;stroke:none;stroke-width:1.25026822"
       d="M 3251.3105 101.11719 C 3071.5152 101.43899 2857.8334 170.73386 2675.5684 283.97266 C 2879.1497 210.70691 3178.3748 139.56834 3305.127 225.57422 C 3556.4373 396.03218 3559.2186 851.43445 3376.0391 1407.5586 C 3503.9729 1417.453 3610.1104 1447.7436 3694.4551 1498.4277 C 3855.7775 881.0041 3797.978 371.54749 3510.3711 170.11133 C 3442.3673 122.46144 3352.1713 100.93667 3251.3105 101.11719 z M 3694.4551 1498.4277 C 3692.6425 1505.3651 3690.7976 1512.3188 3688.9297 1519.2832 C 3690.7975 1512.3195 3692.6446 1505.3664 3694.457 1498.4297 C 3694.4563 1498.4292 3694.4558 1498.4282 3694.4551 1498.4277 z M 3688.9297 1519.2832 C 3688.6512 1520.3215 3688.3754 1521.3576 3688.0957 1522.3965 C 3688.3754 1521.3577 3688.6512 1520.3214 3688.9297 1519.2832 z M 3688.0957 1522.3965 C 3686.2264 1529.3392 3684.3265 1536.2968 3682.4023 1543.2656 C 3684.3264 1536.2971 3686.2265 1529.3389 3688.0957 1522.3965 z M 3682.4023 1543.2656 C 3682.1106 1544.3224 3681.8204 1545.3782 3681.5273 1546.4355 C 3681.8204 1545.378 3682.1105 1544.3225 3682.4023 1543.2656 z M 3681.5273 1546.4355 C 3679.573 1553.4873 3677.5886 1560.553 3675.5781 1567.6309 C 3677.5885 1560.5534 3679.5731 1553.4869 3681.5273 1546.4355 z M 3675.5781 1567.6309 C 3675.3065 1568.5871 3675.0363 1569.5433 3674.7637 1570.5 C 3675.0363 1569.5432 3675.3065 1568.5872 3675.5781 1567.6309 z M 3674.7637 1570.5 C 3672.7969 1577.4014 3670.8012 1584.3167 3668.7812 1591.2422 C 3670.8015 1584.3159 3672.7967 1577.4021 3674.7637 1570.5 z M 3668.7812 1591.2422 C 3668.3795 1592.6195 3667.9761 1593.9968 3667.5723 1595.375 C 3667.9761 1593.9968 3668.3795 1592.6194 3668.7812 1591.2422 z M 3667.5723 1595.375 C 3665.6223 1602.0301 3663.6475 1608.6962 3661.6484 1615.373 C 3663.6476 1608.696 3665.6222 1602.0303 3667.5723 1595.375 z M 3661.6484 1615.373 C 3661.1767 1616.9487 3660.703 1618.5266 3660.2285 1620.1035 C 3660.7031 1618.5264 3661.1766 1616.9489 3661.6484 1615.373 z M 3660.2285 1620.1035 C 3659.0251 1624.1027 3657.7971 1628.1124 3656.5762 1632.1191 C 3657.7971 1628.1125 3659.0251 1624.1025 3660.2285 1620.1035 z M 3656.5762 1632.1191 C 3655.0786 1637.0335 3653.5748 1641.9494 3652.0508 1646.875 C 3653.5747 1641.9495 3655.0787 1637.0334 3656.5762 1632.1191 z M 3652.0508 1646.875 C 3650.9735 1650.3568 3649.8834 1653.8447 3648.793 1657.332 C 3649.8835 1653.8444 3650.9734 1650.3571 3652.0508 1646.875 z M 3648.793 1657.332 C 3647.2485 1662.2713 3645.696 1667.2138 3644.125 1672.1641 C 3645.6959 1667.2138 3647.2486 1662.2713 3648.793 1657.332 z M 3644.125 1672.1641 C 3643.0062 1675.6896 3641.8763 1679.219 3640.7441 1682.75 C 3641.8763 1679.2192 3643.0062 1675.6894 3644.125 1672.1641 z M 3640.7441 1682.75 C 3639.1892 1687.5991 3637.6232 1692.4532 3636.043 1697.3125 C 3637.6232 1692.4529 3639.1892 1687.5994 3640.7441 1682.75 z M 3636.043 1697.3125 C 3634.8924 1700.8506 3633.7342 1704.3921 3632.5703 1707.9355 C 3633.7344 1704.3919 3634.8923 1700.8508 3636.043 1697.3125 z M 3632.5703 1707.9355 C 3630.9029 1713.0114 3629.2222 1718.0931 3627.5273 1723.1797 C 3629.2221 1718.0932 3630.903 1713.0113 3632.5703 1707.9355 z M 3627.5273 1723.1797 C 3626.4323 1726.4664 3625.3331 1729.7538 3624.2266 1733.0449 C 3625.3332 1729.7538 3626.4322 1726.4664 3627.5273 1723.1797 z M 3624.2266 1733.0449 C 3622.4766 1738.2493 3620.7083 1743.4606 3618.9297 1748.6758 C 3620.7083 1743.4604 3622.4766 1738.2495 3624.2266 1733.0449 z M 3618.9297 1748.6758 C 3617.7793 1752.0491 3616.6292 1755.423 3615.4668 1758.8008 C 3616.6293 1755.423 3617.7792 1752.0491 3618.9297 1748.6758 z M 3615.4668 1758.8008 C 3613.6964 1763.9448 3611.9056 1769.0958 3610.1074 1774.25 C 3611.9055 1769.0959 3613.6966 1763.9447 3615.4668 1758.8008 z M 3610.1074 1774.25 C 3608.9365 1777.6065 3607.7667 1780.9615 3606.584 1784.3223 C 3607.7668 1780.9614 3608.9364 1777.6066 3610.1074 1774.25 z M 3606.584 1784.3223 C 3604.709 1789.6498 3602.8109 1794.9862 3600.9062 1800.3242 C 3602.8108 1794.9862 3604.7091 1789.6498 3606.584 1784.3223 z M 3600.9062 1800.3242 C 3599.7828 1803.4731 3598.667 1806.621 3597.5332 1809.7734 C 3598.6671 1806.6207 3599.7826 1803.4733 3600.9062 1800.3242 z M 3597.5332 1809.7734 C 3595.4992 1815.4287 3593.4363 1821.0932 3591.3691 1826.7598 C 3593.4363 1821.0929 3595.4992 1815.4289 3597.5332 1809.7734 z M 3591.3691 1826.7598 C 3590.2999 1829.6909 3589.2402 1832.6186 3588.1621 1835.5527 C 3589.2402 1832.6188 3590.2999 1829.6907 3591.3691 1826.7598 z M 3588.1621 1835.5527 C 3585.8899 1841.7365 3583.5851 1847.9302 3581.2734 1854.127 C 3583.5848 1847.9305 3585.8901 1841.7362 3588.1621 1835.5527 z M 3581.2734 1854.127 C 3580.4158 1856.4262 3579.5701 1858.7224 3578.707 1861.0234 C 3579.5703 1858.7222 3580.4156 1856.4265 3581.2734 1854.127 z M 3578.707 1861.0234 C 3575.9892 1868.2689 3573.2364 1875.5247 3570.4648 1882.7871 C 3573.2362 1875.5247 3575.9894 1868.2688 3578.707 1861.0234 z M 3570.4648 1882.7871 C 3569.9544 1884.1247 3569.4537 1885.4587 3568.9414 1886.7969 C 3569.4537 1885.4587 3569.9544 1884.1247 3570.4648 1882.7871 z M 3568.9414 1886.7969 C 3555.4936 1921.9242 3541.4202 1957.2469 3526.7188 1992.7324 C 3541.4196 1957.2467 3555.4943 1921.9243 3568.9414 1886.7969 z M 3376.0391 1407.5586 C 3375.2024 1410.0987 3374.3425 1412.651 3373.498 1415.1953 C 3374.3424 1412.6512 3375.2024 1410.0985 3376.0391 1407.5586 z M 3373.498 1415.1953 C 3372.0606 1419.5265 3370.6298 1423.8541 3369.1699 1428.1973 C 3370.6298 1423.8543 3372.0606 1419.5263 3373.498 1415.1953 z M 3369.1699 1428.1973 C 3367.8512 1432.1205 3366.505 1436.0574 3365.168 1439.9902 C 3366.5048 1436.0579 3367.8514 1432.12 3369.1699 1428.1973 z M 3365.168 1439.9902 C 3364.1835 1442.886 3363.2092 1445.7768 3362.2148 1448.6777 C 3363.2093 1445.7763 3364.1834 1442.8865 3365.168 1439.9902 z M 3362.2148 1448.6777 C 3360.8593 1452.6325 3359.4793 1456.6002 3358.1055 1460.5645 C 3359.4793 1456.6001 3360.8593 1452.6326 3362.2148 1448.6777 z M 3358.1055 1460.5645 C 3357.0239 1463.6856 3355.9504 1466.8028 3354.8574 1469.9297 C 3355.9504 1466.8028 3357.0239 1463.6855 3358.1055 1460.5645 z M 3354.8574 1469.9297 C 3353.5386 1473.7027 3352.1986 1477.4862 3350.8633 1481.2676 C 3352.1985 1477.4862 3353.5387 1473.7027 3354.8574 1469.9297 z M 3350.8633 1481.2676 C 3349.7437 1484.4383 3348.6292 1487.6066 3347.498 1490.7832 C 3348.6293 1487.6066 3349.7436 1484.4384 3350.8633 1481.2676 z M 3347.498 1490.7832 C 3346.1411 1494.5937 3344.7661 1498.4136 3343.3926 1502.2324 C 3344.7661 1498.4134 3346.1411 1494.594 3347.498 1490.7832 z M 3343.3926 1502.2324 C 3342.2076 1505.5272 3341.0235 1508.8203 3339.8262 1512.1211 C 3341.0235 1508.8204 3342.2076 1505.5271 3343.3926 1502.2324 z M 3339.8262 1512.1211 C 3338.4559 1515.8986 3337.07 1519.6834 3335.6836 1523.4688 C 3337.0699 1519.6834 3338.4559 1515.8986 3339.8262 1512.1211 z M 3335.6836 1523.4688 C 3334.5148 1526.6602 3333.3462 1529.8519 3332.166 1533.0488 C 3333.3463 1529.8518 3334.5147 1526.6603 3335.6836 1523.4688 z M 3332.166 1533.0488 C 3330.7247 1536.9529 3329.2708 1540.8633 3327.8125 1544.7754 C 3329.2708 1540.8632 3330.7247 1536.953 3332.166 1533.0488 z M 3327.8125 1544.7754 C 3326.6235 1547.9651 3325.4327 1551.1565 3324.2324 1554.3516 C 3325.4327 1551.1564 3326.6234 1547.9652 3327.8125 1544.7754 z M 3324.2324 1554.3516 C 3322.7059 1558.4149 3321.1677 1562.4828 3319.623 1566.5547 C 3321.1675 1562.4832 3322.7061 1558.4146 3324.2324 1554.3516 z M 3319.623 1566.5547 C 3318.5407 1569.4079 3317.4545 1572.2637 3316.3633 1575.1211 C 3317.4547 1572.2635 3318.5405 1569.4082 3319.623 1566.5547 z M 3316.3633 1575.1211 C 3314.7372 1579.3785 3313.1009 1583.6398 3311.4551 1587.9062 C 3313.1009 1583.6397 3314.7372 1579.3787 3316.3633 1575.1211 z M 3311.4551 1587.9062 C 3310.3083 1590.8791 3309.1563 1593.8549 3308 1596.832 C 3309.1562 1593.8551 3310.3084 1590.8789 3311.4551 1587.9062 z M 3308 1596.832 C 3306.4232 1600.8917 3304.8406 1604.9539 3303.2461 1609.0215 C 3304.8407 1604.9536 3306.4232 1600.892 3308 1596.832 z M 3303.2461 1609.0215 C 3302.0174 1612.1559 3300.7783 1615.2945 3299.5391 1618.4336 C 3300.7784 1615.2944 3302.0173 1612.156 3303.2461 1609.0215 z M 3299.5391 1618.4336 C 3297.9192 1622.5366 3296.2979 1626.6412 3294.6602 1630.752 C 3296.2978 1626.6413 3297.9194 1622.5365 3299.5391 1618.4336 z M 3294.6602 1630.752 C 3293.5424 1633.5578 3292.4132 1636.3683 3291.2871 1639.1777 C 3292.4134 1636.3681 3293.5422 1633.558 3294.6602 1630.752 z M 3291.2871 1639.1777 C 3289.4924 1643.6549 3287.6967 1648.1331 3285.8809 1652.6191 C 3287.6966 1648.1331 3289.4925 1643.6548 3291.2871 1639.1777 z M 3285.8809 1652.6191 C 3284.8125 1655.2587 3283.7299 1657.9023 3282.6543 1660.5449 C 3283.7299 1657.9025 3284.8125 1655.2585 3285.8809 1652.6191 z M 3282.6543 1660.5449 C 3280.8243 1665.0405 3278.9956 1669.5367 3277.1445 1674.041 C 3278.9956 1669.5365 3280.8243 1665.0408 3282.6543 1660.5449 z M 3277.1445 1674.041 C 3276.0692 1676.6579 3274.979 1679.2806 3273.8965 1681.9004 C 3274.9789 1679.2807 3276.0692 1676.6578 3277.1445 1674.041 z M 3273.8965 1681.9004 C 3271.9611 1686.5842 3270.0263 1691.268 3268.0684 1695.9609 C 3270.0264 1691.2677 3271.961 1686.5845 3273.8965 1681.9004 z M 3268.0684 1695.9609 C 3267.2135 1698.0098 3266.3455 1700.0647 3265.4863 1702.1152 C 3266.3455 1700.0646 3267.2135 1698.0099 3268.0684 1695.9609 z M 3265.4863 1702.1152 C 3263.3225 1707.2797 3261.1598 1712.444 3258.9688 1717.6191 C 3261.1597 1712.4442 3263.3227 1707.2795 3265.4863 1702.1152 z M 3258.9688 1717.6191 C 3258.4242 1718.9054 3257.8685 1720.1955 3257.3223 1721.4824 C 3257.8685 1720.1955 3258.4242 1718.9054 3258.9688 1717.6191 z M 3257.3223 1721.4824 C 3254.8285 1727.3574 3252.3275 1733.2348 3249.7988 1739.123 C 3249.8001 1739.1232 3249.8014 1739.1229 3249.8027 1739.123 C 3252.3316 1733.2344 3254.8284 1727.3578 3257.3223 1721.4824 z M 3249.8027 1739.123 C 3208.9794 1834.1851 3163.5972 1930.9533 3113.9512 2028.6445 L 3500.0996 2028.6445 L 3500.0996 1988.8652 C 3500.0996 1894.572 3472.1055 1828.2734 3416.1191 1789.9668 C 3379.7721 1764.6536 3324.3218 1747.7091 3249.8027 1739.123 z M 3526.1816 1994.0156 C 3522.6971 2002.4186 3519.1816 2010.8291 3515.627 2019.25 C 3519.1811 2010.8299 3522.6976 2002.4178 3526.1816 1994.0156 z M 3515.627 2019.25 C 3515.2361 2020.1759 3514.837 2021.1032 3514.4453 2022.0293 C 3514.837 2021.1032 3515.2361 2020.1759 3515.627 2019.25 z M 3514.4453 2022.0293 C 3511.1628 2029.7904 3507.8557 2037.5584 3504.5137 2045.334 C 3507.8556 2037.5583 3511.1629 2029.7905 3514.4453 2022.0293 z M 3504.5137 2045.334 C 3503.746 2047.1201 3502.9661 2048.9085 3502.1953 2050.6953 C 3502.9661 2048.9085 3503.746 2047.1201 3504.5137 2045.334 z M 3502.1953 2050.6953 C 3499.1578 2057.7364 3496.1038 2064.7817 3493.0176 2071.834 C 3496.1037 2064.7816 3499.1579 2057.7365 3502.1953 2050.6953 z M 3493.0176 2071.834 C 3492.1534 2073.8089 3491.2782 2075.786 3490.4102 2077.7617 C 3491.2783 2075.7859 3492.1533 2073.8089 3493.0176 2071.834 z M 3490.4102 2077.7617 C 3487.3973 2084.6191 3484.3695 2091.4803 3481.3105 2098.3477 C 3484.3693 2091.4803 3487.3974 2084.619 3490.4102 2077.7617 z M 3481.3105 2098.3477 C 3480.3807 2100.4354 3479.442 2102.5247 3478.5078 2104.6133 C 3479.442 2102.5246 3480.3806 2100.4354 3481.3105 2098.3477 z M 3478.5078 2104.6133 C 3475.449 2111.452 3472.3719 2118.2945 3469.2676 2125.1426 C 3472.3719 2118.2942 3475.449 2111.4523 3478.5078 2104.6133 z M 3469.2676 2125.1426 C 3468.3227 2127.227 3467.3729 2129.3132 3466.4238 2131.3984 C 3467.3729 2129.3132 3468.3227 2127.2269 3469.2676 2125.1426 z M 3466.4238 2131.3984 C 3463.3658 2138.1171 3460.2874 2144.8393 3457.1855 2151.5664 C 3460.2873 2144.8391 3463.3658 2138.1173 3466.4238 2131.3984 z M 3457.1855 2151.5664 C 3456.1187 2153.8802 3455.0466 2156.195 3453.9746 2158.5098 C 3455.0467 2156.1949 3456.1186 2153.8803 3457.1855 2151.5664 z M 3453.9746 2158.5098 C 3450.9175 2165.1107 3447.8395 2171.7157 3444.7402 2178.3242 C 3447.8395 2171.7154 3450.9174 2165.111 3453.9746 2158.5098 z M 3444.7402 2178.3242 C 3443.6541 2180.6403 3442.5659 2182.9564 3441.4746 2185.2734 C 3442.5659 2182.9566 3443.6541 2180.6401 3444.7402 2178.3242 z M 3441.4746 2185.2734 C 3438.3464 2191.9148 3435.1961 2198.5605 3432.0254 2205.209 C 3435.1961 2198.5603 3438.3464 2191.915 3441.4746 2185.2734 z M 3432.0254 2205.209 C 3430.95 2207.464 3429.8733 2209.7188 3428.793 2211.9746 C 3429.8734 2209.7186 3430.9499 2207.4642 3432.0254 2205.209 z M 3428.793 2211.9746 C 3425.5207 2218.8075 3422.2252 2225.6445 3418.9082 2232.4844 C 3422.2251 2225.6448 3425.5209 2218.8072 3428.793 2211.9746 z M 3418.9082 2232.4844 C 3417.924 2234.5139 3416.9413 2236.5422 3415.9531 2238.5723 C 3416.9413 2236.5422 3417.924 2234.5139 3418.9082 2232.4844 z M 3415.9531 2238.5723 C 3412.5443 2245.5754 3409.1081 2252.5839 3405.6523 2259.5938 C 3409.1082 2252.5835 3412.5442 2245.5758 3415.9531 2238.5723 z M 3405.6523 2259.5938 C 3404.6885 2261.5489 3403.7292 2263.5033 3402.7617 2265.459 C 3403.7292 2263.5033 3404.6885 2261.5489 3405.6523 2259.5938 z M 3402.7617 2265.459 C 3399.2105 2272.6373 3395.6277 2279.8191 3392.0273 2287.0039 C 3395.6278 2279.819 3399.2104 2272.6375 3402.7617 2265.459 z M 3392.0273 2287.0039 C 3391.1546 2288.7455 3390.2897 2290.4866 3389.4141 2292.2285 C 3390.2897 2290.4866 3391.1546 2288.7455 3392.0273 2287.0039 z M 3389.4141 2292.2285 C 3385.4956 2300.0238 3381.5445 2307.8228 3377.5684 2315.625 C 3381.5444 2307.8231 3385.4958 2300.0236 3389.4141 2292.2285 z M 3377.5684 2315.625 C 3377.0357 2316.6702 3376.5083 2317.7144 3375.9746 2318.7598 C 3376.5083 2317.7144 3377.0357 2316.6703 3377.5684 2315.625 z M 3375.9746 2318.7598 C 3371.4678 2327.587 3366.9263 2336.417 3362.3457 2345.252 C 3366.9262 2336.4172 3371.468 2327.5867 3375.9746 2318.7598 z M 3113.8164 2028.9082 C 3110.6194 2035.1982 3107.4042 2041.4936 3104.1719 2047.791 C 3107.4043 2041.4934 3110.6194 2035.1983 3113.8164 2028.9082 z M 3104.1719 2047.791 C 3103.9285 2048.2652 3103.6831 2048.7386 3103.4395 2049.2129 C 3103.6831 2048.7386 3103.9285 2048.2652 3104.1719 2047.791 z M 3103.4395 2049.2129 C 3100.2523 2055.4177 3097.0495 2061.6263 3093.8281 2067.8379 C 3097.0496 2061.6261 3100.2522 2055.4179 3103.4395 2049.2129 z M 3093.8281 2067.8379 C 3093.5498 2068.3746 3093.2708 2068.9124 3092.9922 2069.4492 C 3093.2708 2068.9124 3093.5497 2068.3747 3093.8281 2067.8379 z M 3092.9922 2069.4492 C 3079.4319 2095.5752 3065.5711 2121.7591 3051.4121 2147.9863 C 3065.5715 2121.7583 3079.4316 2095.5757 3092.9922 2069.4492 z M 3051.4121 2147.9863 C 3048.0562 2154.2025 3044.6802 2160.4197 3041.291 2166.6406 C 3044.6799 2160.4203 3048.0565 2154.202 3051.4121 2147.9863 z M 3041.291 2166.6406 C 3040.904 2167.351 3040.5183 2168.0611 3040.1309 2168.7715 C 3040.5183 2168.0611 3040.904 2167.3509 3041.291 2166.6406 z M 3040.1309 2168.7715 C 3036.9256 2174.6488 3033.7056 2180.5291 3030.4707 2186.4102 C 3033.7057 2180.5288 3036.9254 2174.649 3040.1309 2168.7715 z M 3030.4707 2186.4102 C 3029.881 2187.4823 3029.2899 2188.5547 3028.6992 2189.627 C 3029.29 2188.5546 3029.8809 2187.4824 3030.4707 2186.4102 z M 3028.6992 2189.627 C 3025.3725 2195.6656 3022.0335 2201.7058 3018.6758 2207.748 C 3022.0335 2201.7059 3025.3726 2195.6656 3028.6992 2189.627 z M 3018.3691 2208.2969 C 3003.6689 2234.7429 2988.6733 2261.2206 2973.3848 2287.7168 C 2988.6732 2261.2208 3003.6689 2234.7429 3018.3691 2208.2969 z M 2973.209 2288.0254 C 2969.6671 2294.1629 2966.1044 2300.3022 2962.5312 2306.4414 C 2966.1048 2300.3016 2969.6667 2294.1635 2973.209 2288.0254 z M 2962.5312 2306.4414 C 2962.0182 2307.323 2961.5059 2308.2043 2960.9922 2309.0859 C 2961.5059 2308.2044 2962.0182 2307.3229 2962.5312 2306.4414 z M 2960.9922 2309.0859 C 2957.6058 2314.8971 2954.2052 2320.7091 2950.791 2326.5215 C 2954.2054 2320.7088 2957.6057 2314.8974 2960.9922 2309.0859 z M 2950.791 2326.5215 C 2950.0598 2327.7663 2949.3262 2329.011 2948.5938 2330.2559 C 2949.3262 2329.011 2950.0598 2327.7663 2950.791 2326.5215 z M 2948.5938 2330.2559 C 2945.1937 2336.0342 2941.7829 2341.8127 2938.3555 2347.5918 C 2941.783 2341.8126 2945.1936 2336.0343 2948.5938 2330.2559 z M 2938.3555 2347.5918 C 2897.7414 2416.0723 2855.224 2484.5936 2810.8594 2552.8965 C 2797.1028 2574.0754 2783.2544 2595.0706 2769.334 2615.9043 C 2769.4243 2615.7691 2769.5152 2615.6352 2769.6055 2615.5 C 2775.934 2625.8119 2783.6982 2634.4978 2792.9004 2641.5527 C 2823.3491 2663.1614 2884.7358 2673.9629 2977.0645 2673.9629 L 3175.4316 2673.9629 C 3170.7836 2681.4607 3166.1102 2688.9581 3161.4121 2696.4531 C 3234.766 2579.493 3301.7419 2462.1341 3362.2637 2345.4121 L 3008.0059 2345.4121 C 2982.6624 2345.4121 2959.3635 2346.3048 2938.0742 2348.0703 C 2938.1687 2347.911 2938.261 2347.7511 2938.3555 2347.5918 z M 2769.334 2615.9043 C 2765.1287 2622.1981 2760.9149 2628.4727 2756.6953 2634.7344 C 2760.9149 2628.4726 2765.1286 2622.1982 2769.334 2615.9043 z M 2756.6953 2634.7344 C 2755.9798 2635.7961 2755.2647 2636.8591 2754.5488 2637.9199 C 2755.2647 2636.8591 2755.9798 2635.7961 2756.6953 2634.7344 z M 2754.5488 2637.9199 C 2750.3586 2644.1291 2746.1609 2650.3228 2741.957 2656.5 C 2746.1613 2650.3221 2750.3582 2644.1297 2754.5488 2637.9199 z M 2741.957 2656.5 C 2741.4308 2657.2732 2740.9034 2658.0457 2740.377 2658.8184 C 2740.9033 2658.0457 2741.4309 2657.2731 2741.957 2656.5 z M 2740.377 2658.8184 C 2735.9917 2665.2553 2731.6008 2671.6762 2727.2012 2678.0781 C 2731.6009 2671.6761 2735.9916 2665.2555 2740.377 2658.8184 z M 2727.2012 2678.0781 C 2726.8498 2678.5895 2726.498 2679.1002 2726.1465 2679.6113 C 2726.498 2679.1002 2726.8497 2678.5895 2727.2012 2678.0781 z M 2726.1465 2679.6113 C 2721.6616 2686.1327 2717.1694 2692.6365 2712.6699 2699.1211 C 2717.1695 2692.6365 2721.6615 2686.1327 2726.1465 2679.6113 z M 2712.6699 2699.1211 C 2712.3578 2699.5709 2712.0446 2700.0191 2711.7324 2700.4688 C 2712.0446 2700.0191 2712.3578 2699.5709 2712.6699 2699.1211 z M 2711.7324 2700.4688 C 2707.1527 2707.0648 2702.567 2713.6436 2697.9727 2720.2012 C 2702.567 2713.6437 2707.1528 2707.0647 2711.7324 2700.4688 z M 3161.0117 2697.0918 C 3156.5637 2704.1856 3152.092 2711.2765 3147.5977 2718.3672 C 3152.0947 2711.2773 3156.5617 2704.1849 3161.0117 2697.0918 z M 3147.5977 2718.3672 C 3146.3518 2720.3314 3145.0952 2722.2939 3143.8457 2724.2578 C 3145.0943 2722.2939 3146.3527 2720.3313 3147.5977 2718.3672 z M 3143.8457 2724.2578 C 3140.2707 2729.881 3136.691 2735.5043 3133.0859 2741.125 C 3136.6931 2735.504 3140.2681 2729.8812 3143.8457 2724.2578 z M 3133.0859 2741.125 C 3128.0539 2748.9663 3123.0016 2756.8064 3117.9121 2764.6426 C 3123.0015 2756.8065 3128.0565 2748.9665 3133.0859 2741.125 z M 2697.6523 2720.6582 C 2692.9056 2727.4318 2688.1526 2734.1858 2683.3906 2740.918 C 2688.1522 2734.1863 2692.906 2727.4312 2697.6523 2720.6582 z M 2683.3906 2740.918 C 2649.5249 2788.7955 2615.279 2835.6226 2580.7324 2881.3301 C 2615.2795 2835.6219 2649.5241 2788.7968 2683.3906 2740.918 z M 3117.9121 2764.6445 C 3112.7968 2772.5199 3107.661 2780.3642 3102.5156 2788.1914 C 3107.6613 2780.364 3112.7966 2772.5203 3117.9121 2764.6445 z M 3102.5156 2788.1914 C 3101.7451 2789.3635 3100.9763 2790.538 3100.2051 2791.709 C 3100.9762 2790.538 3101.7451 2789.3635 3102.5156 2788.1914 z M 3100.2051 2791.709 C 3095.5004 2798.8529 3090.782 2805.9728 3086.0527 2813.0762 C 3090.7818 2805.9735 3095.5006 2798.8524 3100.2051 2791.709 z M 3086.0527 2813.0762 C 3084.7109 2815.0916 3083.3673 2817.1051 3082.0234 2819.1172 C 3083.3673 2817.1049 3084.7109 2815.0917 3086.0527 2813.0762 z M 3082.0234 2819.1172 C 3077.3836 2826.0649 3072.7332 2832.9959 3068.0703 2839.9043 C 3072.7335 2832.9961 3077.3833 2826.0648 3082.0234 2819.1172 z M 3068.0703 2839.9043 C 3067.0136 2841.4698 3065.9544 2843.0302 3064.8965 2844.5938 C 3065.9543 2843.0303 3067.0137 2841.4698 3068.0703 2839.9043 z M 3064.8965 2844.5938 C 3060.6223 2850.9111 3056.3399 2857.2119 3052.0469 2863.4961 C 3056.3399 2857.2125 3060.6223 2850.9106 3064.8965 2844.5938 z M 3052.0469 2863.4961 C 3050.4261 2865.8684 3048.8032 2868.2379 3047.1797 2870.6055 C 3048.8032 2868.2376 3050.426 2865.8687 3052.0469 2863.4961 z M 3047.1797 2870.6055 C 3043.1912 2876.4227 3039.1938 2882.2252 3035.1895 2888.0137 C 3039.1942 2882.2252 3043.1908 2876.4227 3047.1797 2870.6055 z M 3035.1895 2888.0137 C 3033.801 2890.0206 3032.4138 2892.0298 3031.0234 2894.0332 C 3032.4136 2892.0298 3033.8012 2890.0205 3035.1895 2888.0137 z M 3031.0234 2894.0332 C 3026.6286 2900.3667 3022.222 2906.6779 3017.8086 2912.9766 C 3022.2222 2906.6783 3026.6284 2900.3662 3031.0234 2894.0332 z M 3017.8086 2912.9766 C 3015.9606 2915.6136 3014.1109 2918.248 3012.2598 2920.8789 C 3014.111 2918.2476 3015.9606 2915.6139 3017.8086 2912.9766 z M 3012.2598 2920.8789 C 3008.1125 2926.7737 3003.9601 2932.6556 2999.7969 2938.5195 C 3003.9601 2932.656 3008.1124 2926.7732 3012.2598 2920.8789 z M 2999.7969 2938.5195 C 2997.7976 2941.3353 2995.7939 2944.1426 2993.791 2946.9512 C 2995.7938 2944.1424 2997.7977 2941.3355 2999.7969 2938.5195 z M 2993.791 2946.9512 C 2990.6183 2951.4006 2987.4395 2955.8401 2984.2578 2960.2715 C 2987.4396 2955.8402 2990.6182 2951.4004 2993.791 2946.9512 z M 2984.2578 2960.2715 C 2981.2663 2964.4378 2978.2708 2968.5957 2975.2715 2972.7461 C 2978.2708 2968.5956 2981.2663 2964.438 2984.2578 2960.2715 z M 2975.2715 2972.7461 C 2972.488 2976.5979 2969.7022 2980.4433 2966.9121 2984.2812 C 2969.7022 2980.4433 2972.488 2976.5978 2975.2715 2972.7461 z M 2966.9121 2984.2812 C 2964.6334 2987.4158 2962.3554 2990.5524 2960.0723 2993.6777 C 2962.3554 2990.5524 2964.6334 2987.4159 2966.9121 2984.2812 z M 2960.0723 2993.6777 L 2806.1602 2993.6777 C 2699.6539 2993.6777 2609.659 2975.6044 2536.123 2939.5156 C 2536.2707 2939.3258 2536.4168 2939.1332 2536.5645 2938.9434 C 1940.6386 3705.4444 1266.4317 4135.1448 913.66406 3888.0098 C 701.66846 3739.5155 671.56297 3222.354 781.88672 2842.4727 C 579.20559 3280.9166 633.27939 3977.0539 911.16406 4171.7207 C 1349.2114 4478.5522 2257.829 3954.9729 2960.0723 2993.6777 z M 2536.5645 2938.9434 C 2541.212 2932.9655 2545.8563 2926.9679 2550.4941 2920.9492 C 2545.8561 2926.9681 2541.2122 2932.9653 2536.5645 2938.9434 z M 2550.4941 2920.9492 C 2550.8701 2920.4614 2551.2452 2919.9725 2551.6211 2919.4844 C 2551.2452 2919.9725 2550.8701 2920.4613 2550.4941 2920.9492 z M 2551.6211 2919.4844 C 2556.2501 2913.4728 2560.8733 2907.4425 2565.4922 2901.3906 C 2560.8736 2907.442 2556.2497 2913.4733 2551.6211 2919.4844 z M 2565.4922 2901.3906 C 2565.8265 2900.9526 2566.1618 2900.5144 2566.4961 2900.0762 C 2566.1618 2900.5144 2565.8265 2900.9526 2565.4922 2901.3906 z M 2566.4961 2900.0762 C 2571.2358 2893.862 2575.9705 2887.6293 2580.6992 2881.373 C 2575.9703 2887.6296 2571.2361 2893.8617 2566.4961 2900.0762 z "
       id="path5328"
       inkscape:export-xdpi="96"
       inkscape:export-ydpi="96" /></g><g
     inkscape:groupmode="layer"
     id="layer7"
     inkscape:label="a cutout"
     style="display:inline"><path
       style="font-style:normal;font-variant:normal;font-weight:normal;font-stretch:normal;font-size:1410.8503418px;line-height:1.25;font-family:'HandelGothic BT';-inkscape-font-specification:'HandelGothic BT';letter-spacing:0px;word-spacing:0px;display:inline;opacity:1;fill:#3b4a89;fill-opacity:1;stroke:none;stroke-width:2.54273462;filter:url(#filter390)"
       d="m 2418.6738,1403.9551 v 328.5527 h 701.3047 c 48.3811,0 91.7048,2.2162 129.9981,6.6367 -0.06,-0.01 -0.118,-0.015 -0.1778,-0.022 48.6921,-113.3851 90.9243,-224.3466 126.2403,-331.5644 3.871,0.2994 7.7197,0.6183 11.5507,0.9551 -34.5432,-3.0361 -70.7026,-4.5586 -108.4902,-4.5586 z m 968.916,4.5586 c 0.497,0.044 0.9901,0.09 1.4864,0.1347 -0.4963,-0.044 -0.9894,-0.091 -1.4864,-0.1347 z m 1.4864,0.1347 c 3.2334,0.2887 6.4532,0.5909 9.6582,0.9063 -3.2053,-0.3154 -6.4244,-0.6176 -9.6582,-0.9063 z m 9.6582,0.9063 c 0.7138,0.07 1.4263,0.1413 2.1386,0.2129 -0.7123,-0.072 -1.4249,-0.1427 -2.1386,-0.2129 z m 2.1386,0.2129 c 3.1823,0.3196 6.3499,0.6539 9.504,1 -3.1537,-0.346 -6.3221,-0.6804 -9.504,-1 z m 9.504,1 c 0.5286,0.058 1.0599,0.1131 1.5878,0.1719 -0.528,-0.059 -1.059,-0.1139 -1.5878,-0.1719 z m 1.5878,0.1719 c 7.3331,0.816 14.5895,1.7028 21.7696,2.6621 -7.18,-0.9592 -14.4366,-1.8461 -21.7696,-2.6621 z m 21.7696,2.6621 c 0.6723,0.09 1.3407,0.1843 2.0117,0.2754 -0.671,-0.091 -1.3394,-0.1856 -2.0117,-0.2754 z m 2.0117,0.2754 c 2.9679,0.4028 5.9236,0.8167 8.8652,1.2441 -2.942,-0.4274 -5.8969,-0.8413 -8.8652,-1.2441 z m 8.8652,1.2441 c 0.6423,0.093 1.2847,0.1868 1.9258,0.2812 -0.6409,-0.094 -1.2836,-0.1879 -1.9258,-0.2812 z m 1.9258,0.2812 c 3.4601,0.5101 6.9065,1.034 10.3301,1.5782 -3.424,-0.5442 -6.8697,-1.0681 -10.3301,-1.5782 z m 10.3301,1.5782 c 3.6809,0.585 7.3397,1.188 10.9785,1.8125 -3.6378,-0.6243 -7.2986,-1.2277 -10.9785,-1.8125 z m -206.8906,322.164 c 1.4748,0.1703 2.9307,0.3486 4.3906,0.5254 -1.4601,-0.1768 -2.9156,-0.3551 -4.3906,-0.5254 z m 4.3906,0.5254 c 1.534,0.1858 3.0606,0.3753 4.5781,0.5684 -1.5178,-0.1931 -3.0438,-0.3825 -4.5781,-0.5684 z m 4.5781,0.5684 c 1.3921,0.1771 2.7859,0.352 4.1641,0.5351 -1.3776,-0.1831 -2.7726,-0.3581 -4.1641,-0.5351 z m 4.1641,0.5351 c 2.5074,0.3333 4.9917,0.6759 7.4531,1.0293 -2.4611,-0.3533 -4.9461,-0.6961 -7.4531,-1.0293 z m 7.4531,1.0293 c 1.3324,0.1913 2.6479,0.3907 3.9668,0.5879 -1.3189,-0.1972 -2.6344,-0.3965 -3.9668,-0.5879 z m 3.9668,0.5879 c 1.5819,0.2366 3.1543,0.4776 4.7168,0.7227 -1.5625,-0.245 -3.1349,-0.4862 -4.7168,-0.7227 z m 4.7168,0.7227 c 1.2539,0.1966 2.5124,0.3916 3.7539,0.5937 -1.2415,-0.2021 -2.4999,-0.3971 -3.7539,-0.5937 z m 3.7539,0.5937 c 2.4079,0.3921 4.7914,0.7944 7.1523,1.2071 -2.3611,-0.4127 -4.7442,-0.815 -7.1523,-1.2071 z m 7.1523,1.2071 c 1.2229,0.2137 2.4305,0.4331 3.6407,0.6523 -1.2102,-0.2192 -2.4179,-0.4386 -3.6407,-0.6523 z m 3.6407,0.6523 c 1.484,0.2689 2.9568,0.5431 4.4218,0.8203 -1.4646,-0.277 -2.9383,-0.5516 -4.4218,-0.8203 z m 4.4218,0.8203 c 1.2797,0.2421 2.5649,0.4821 3.8301,0.7305 -1.2657,-0.2486 -2.5499,-0.4883 -3.8301,-0.7305 z m 169.9024,-327.5449 c 3.3795,0.5811 6.7388,1.1818 10.082,1.7969 -3.3439,-0.6152 -6.7017,-1.2157 -10.082,-1.7969 z m 10.082,1.7969 c 0.4877,0.09 0.974,0.181 1.461,0.2715 -0.487,-0.091 -0.9732,-0.1818 -1.461,-0.2715 z m 1.461,0.2715 c 3.037,0.5641 6.0594,1.142 9.0664,1.7343 -3.007,-0.5923 -6.0293,-1.1702 -9.0664,-1.7343 z m 9.0664,1.7343 c 0.4542,0.089 0.9097,0.1775 1.3632,0.2676 -0.4534,-0.09 -0.9091,-0.1781 -1.3632,-0.2676 z m 1.3632,0.2676 c 6.9492,1.3808 13.8196,2.8354 20.6075,4.3672 -6.7879,-1.5317 -13.6584,-2.9864 -20.6075,-4.3672 z m 20.8614,4.4258 c 3.2113,0.7258 6.4029,1.4709 9.5781,2.2305 -3.1758,-0.7597 -6.3662,-1.5046 -9.5781,-2.2305 z m 9.5781,2.2305 c 0.4299,0.1028 0.8598,0.2051 1.2891,0.3086 -0.4293,-0.1035 -0.8591,-0.2058 -1.2891,-0.3086 z m 1.2891,0.3086 c 3.1421,0.7573 6.2683,1.5297 9.375,2.3203 -3.1064,-0.7905 -6.2332,-1.5631 -9.375,-2.3203 z m 9.7128,2.4062 c 6.6503,1.6956 13.2176,3.4666 19.7051,5.3145 -6.4871,-1.8477 -13.0552,-3.6191 -19.7051,-5.3145 z m 19.7051,5.3145 c 0.3269,0.093 0.6521,0.1877 0.9785,0.2812 -0.3264,-0.093 -0.6516,-0.1881 -0.9785,-0.2812 z m 0.9785,0.2812 c 2.8834,0.8257 5.7504,1.6676 8.6016,2.5234 -2.8513,-0.8558 -5.7181,-1.6977 -8.6016,-2.5234 z m 8.6016,2.5234 c 0.3868,0.1161 0.774,0.233 1.1602,0.3497 -0.3863,-0.1167 -0.7734,-0.2335 -1.1602,-0.3497 z m 1.1602,0.3497 c 3.1057,0.9381 6.1963,1.8892 9.2636,2.8632 -3.067,-0.9739 -6.1582,-1.9252 -9.2636,-2.8632 z m 9.2636,2.8632 c 3.2317,1.0263 6.4417,2.0726 9.6309,3.1387 -3.1897,-1.0662 -6.3986,-2.1123 -9.6309,-3.1387 z m 9.6309,3.1387 c 2.9958,1.0015 5.9695,2.0239 8.9277,3.0606 -2.9583,-1.0366 -5.9319,-2.0592 -8.9277,-3.0606 z m 8.9277,3.0606 c 0.4303,0.1507 0.8596,0.3016 1.2891,0.4531 -0.4295,-0.1515 -0.8588,-0.3024 -1.2891,-0.4531 z m 1.2891,0.4531 c 2.8076,0.9905 5.5994,1.9972 8.373,3.0195 -2.7737,-1.0223 -5.5654,-2.029 -8.373,-3.0195 z m 8.373,3.0195 c 0.1417,0.052 0.2842,0.104 0.4258,0.1563 -0.1416,-0.052 -0.2841,-0.1041 -0.4258,-0.1563 z m 0.4258,0.1563 c 6.1064,2.2556 12.1307,4.5882 18.0723,6.998 -5.9414,-2.4096 -11.9661,-4.7426 -18.0723,-6.998 z m 18.0723,6.998 c 0.1683,0.068 0.3357,0.1367 0.5039,0.2051 -0.1682,-0.068 -0.3356,-0.1368 -0.5039,-0.2051 z m 0.5039,0.2051 c 2.7505,1.1185 5.4821,2.2546 8.1973,3.4062 -2.7154,-1.1516 -5.4466,-2.2877 -8.1973,-3.4062 z m 8.1973,3.4062 c 0.2807,0.1191 0.5614,0.238 0.8418,0.3575 -0.2804,-0.1194 -0.5612,-0.2384 -0.8418,-0.3575 z m 0.8418,0.3575 c 8.687,3.7003 17.1936,7.5692 25.5175,11.6093 -8.3241,-4.0401 -16.8303,-7.909 -25.5175,-11.6093 z m 25.5175,11.6093 c 0.2543,0.1234 0.5078,0.2474 0.7617,0.3711 -0.2539,-0.1237 -0.5074,-0.2476 -0.7617,-0.3711 z m 0.7617,0.3711 c 2.5548,1.2448 5.0929,2.5063 7.6133,3.7832 -2.5202,-1.2768 -5.0587,-2.5385 -7.6133,-3.7832 z m 7.6133,3.7832 c 0.2256,0.1143 0.4524,0.2273 0.6778,0.3418 -0.2254,-0.1145 -0.4522,-0.2275 -0.6778,-0.3418 z m 0.6778,0.3418 c 8.2113,4.1745 16.2394,8.5212 24.0859,13.0371 -7.847,-4.5162 -15.874,-8.8624 -24.0859,-13.0371 z m 24.0859,13.0371 c 0.2293,0.132 0.4585,0.2642 0.6875,0.3965 -0.2291,-0.1323 -0.4581,-0.2645 -0.6875,-0.3965 z m 0.6875,0.3965 c 2.527,1.4596 5.0364,2.9347 7.5254,4.4297 -2.4888,-1.4949 -4.9987,-2.9703 -7.5254,-4.4297 z m 7.6113,4.4805 c -69.8896,267.4859 -180.9184,555.2345 -332.1933,846.9824 h 140.7812 v 328.5527 h -327.6152 c -18.7548,30.2536 -37.9092,60.4892 -57.5176,90.6797 -51.1903,78.812 -103.9085,155.207 -157.8398,229.0332 h 974.6582 V 1997.707 c 0,-196.444 -55.005,-344.2684 -165.0137,-443.4726 -22.7875,-20.7529 -47.8785,-39.3507 -75.2598,-55.8047 z m -519.0273,1175.5351 c 5e-4,-7e-4 0,0 0,0 h -198.3671 c -17.1859,0 -33.2961,-0.3745 -48.3379,-1.1231 15.0424,0.7488 31.1533,1.125 48.3398,1.125 z m 126.6836,-926.8339 c 2.2173,0.4357 4.413,0.8827 6.5859,1.3379 -2.1744,-0.4554 -4.3671,-0.9021 -6.5859,-1.3379 z m 6.5859,1.3379 c 1.1004,0.2304 2.1864,0.4676 3.2754,0.7031 -1.0886,-0.2355 -2.1753,-0.4727 -3.2754,-0.7031 z m 3.2754,0.7031 c 1.5532,0.3359 3.093,0.6754 4.6231,1.0215 -1.5298,-0.346 -3.0702,-0.6858 -4.6231,-1.0215 z m 4.6231,1.0215 c 1.0574,0.2391 2.1215,0.4767 3.1679,0.7207 -1.0467,-0.2441 -2.1102,-0.4815 -3.1679,-0.7207 z m 3.1679,0.7207 c 2.1863,0.5098 4.3465,1.0314 6.4844,1.5625 -2.1387,-0.5312 -4.2973,-1.0526 -6.4844,-1.5625 z m 6.4844,1.5625 c 1.0108,0.251 2.0098,0.5079 3.0098,0.7636 -1.0001,-0.2558 -1.999,-0.5125 -3.0098,-0.7636 z m 3.0098,0.7636 c 1.5603,0.3992 3.1066,0.8042 4.6406,1.2149 -1.5342,-0.4107 -3.0802,-0.8158 -4.6406,-1.2149 z m 4.6406,1.2149 c 0.8654,0.2316 1.7386,0.46 2.5957,0.6953 -0.857,-0.2354 -1.7304,-0.4636 -2.5957,-0.6953 z m 2.5957,0.6953 c 2.1358,0.5866 4.2405,1.1856 6.3242,1.7949 -2.0841,-0.6093 -4.1881,-1.2084 -6.3242,-1.7949 z m 6.3242,1.7949 c 0.8749,0.2558 1.7398,0.5156 2.6055,0.7754 -0.8657,-0.2598 -1.7307,-0.5196 -2.6055,-0.7754 z m 2.6055,0.7754 c 1.6472,0.4944 3.2786,0.9969 4.8926,1.5059 -1.6144,-0.509 -3.245,-1.0115 -4.8926,-1.5059 z m 4.8926,1.5059 c 0.625,0.197 1.2588,0.3906 1.8789,0.5898 -0.6199,-0.1992 -1.2541,-0.3928 -1.8789,-0.5898 z m 1.8789,0.5898 c 2.0766,0.6675 4.1178,1.3511 6.1386,2.043 -2.0206,-0.6917 -4.0622,-1.3758 -6.1386,-2.043 z m 6.1386,2.043 c 0.7738,0.2648 1.5392,0.5323 2.3047,0.8008 -0.7653,-0.2685 -1.5311,-0.536 -2.3047,-0.8008 z m 2.3047,0.8008 c 1.6051,0.5629 3.1926,1.1341 4.7617,1.7128 -1.5693,-0.5786 -3.1563,-1.1499 -4.7617,-1.7128 z m 4.7617,1.7128 c 0.5451,0.201 1.1,0.3968 1.6407,0.5997 -0.5406,-0.2029 -1.0957,-0.3987 -1.6407,-0.5997 z m 1.6407,0.5997 c 1.9957,0.749 3.956,1.514 5.8925,2.289 -1.9371,-0.775 -3.8962,-1.54 -5.8925,-2.289 z m 5.8925,2.289 c 1.1038,0.4416 2.2046,0.8859 3.2891,1.336 -1.085,-0.4504 -2.1848,-0.8941 -3.2891,-1.336 z m 3.5957,1.461 c 1.4602,0.6079 2.903,1.2224 4.3282,1.8457 -1.4245,-0.6231 -2.8687,-1.238 -4.3282,-1.8457 z m 4.6114,1.9726 c 1.2529,0.5497 2.4909,1.1064 3.7168,1.668 -1.226,-0.5618 -2.4638,-1.1181 -3.7168,-1.668 z m 3.7168,1.668 c 0.3115,0.1428 0.6218,0.2861 0.9316,0.4297 -0.31,-0.1436 -0.6199,-0.2869 -0.9316,-0.4297 z m 0.9316,0.4297 c 1.0741,0.4975 2.1364,1.001 3.1895,1.5078 -1.0528,-0.5068 -2.1156,-1.0103 -3.1895,-1.5078 z m 3.1895,1.5078 c 0.2627,0.1264 0.5276,0.2519 0.789,0.3789 -0.2614,-0.127 -0.5263,-0.2525 -0.789,-0.3789 z m 0.789,0.3789 c 1.3117,0.6372 2.61,1.2799 3.8887,1.9316 -1.2787,-0.6518 -2.577,-1.2942 -3.8887,-1.9316 z m 3.8887,1.9316 c 1.2587,0.6415 2.4979,1.2918 3.7246,1.9473 -1.2271,-0.6558 -2.4656,-1.3055 -3.7246,-1.9473 z m 3.7246,1.9473 c 0.2406,0.1286 0.4794,0.2576 0.7188,0.3867 -0.2394,-0.1291 -0.4782,-0.2581 -0.7188,-0.3867 z m 0.7188,0.3867 c 0.979,0.528 1.9458,1.0626 2.9043,1.5996 -0.9583,-0.537 -1.9255,-1.0716 -2.9043,-1.5996 z m 2.9043,1.5996 c 0.305,0.171 0.613,0.3399 0.916,0.5117 -0.3031,-0.1719 -0.6109,-0.3407 -0.916,-0.5117 z m 0.916,0.5117 c 1.1712,0.6644 2.3306,1.3338 3.4707,2.0118 -1.1401,-0.6781 -2.2995,-1.3473 -3.4707,-2.0118 z m 3.4707,2.0118 c 1.0992,0.6536 2.1778,1.3161 3.248,1.9824 -1.0695,-0.666 -2.1496,-1.3292 -3.248,-1.9824 z m 3.248,1.9824 c 0.3617,0.2252 0.7197,0.451 1.0782,0.6777 -0.3583,-0.2265 -0.7166,-0.4526 -1.0782,-0.6777 z m 1.0782,0.6777 c 0.7797,0.4931 1.5523,0.9903 2.3164,1.4903 -0.7645,-0.5003 -1.5363,-0.9969 -2.3164,-1.4903 z m 2.3164,1.4903 c 0.3259,0.2133 0.6534,0.426 0.9765,0.6406 -0.3231,-0.2146 -0.6506,-0.4274 -0.9765,-0.6406 z m 0.9765,0.6406 c 1.0495,0.6967 2.0881,1.3975 3.1074,2.1074 -1.019,-0.7097 -2.0584,-1.4109 -3.1074,-2.1074 z m 26.1699,21.0097 c 0.377,0.3685 0.7574,0.7335 1.1309,1.1055 -0.3735,-0.372 -0.7539,-0.737 -1.1309,-1.1055 z m 5.4766,5.5977 c 1.4215,1.5251 2.8167,3.0784 4.1836,4.6582 -1.3669,-1.5798 -2.7621,-3.1331 -4.1836,-4.6582 z m 8.2012,9.4785 c 1.3122,1.6345 2.5979,3.2972 3.8554,4.9863 -1.2575,-1.6891 -2.5432,-3.3518 -3.8554,-4.9863 z m 7.5449,10.1348 c 1.2028,1.7438 2.3792,3.5159 3.5273,5.3144 -1.1481,-1.7985 -2.3245,-3.5706 -3.5273,-5.3144 z m 5.2285,8.0312 c 1.1208,1.8259 2.2151,3.6801 3.2813,5.5606 -1.0662,-1.8805 -2.1605,-3.7348 -3.2813,-5.5606 z m 4.8594,8.4024 c 1.0388,1.9078 2.051,3.8421 3.0351,5.8047 -0.9841,-1.9625 -1.9963,-3.8969 -3.0351,-5.8047 z m 4.4902,8.7695 c 1.4352,2.9848 2.8089,6.0309 4.1211,9.1387 -1.3122,-3.1078 -2.6859,-6.1539 -4.1211,-9.1387 z m 4.1211,9.1387 c 0.8748,2.0718 1.7229,4.1703 2.543,6.2969 -0.8201,-2.1266 -1.6682,-4.2251 -2.543,-6.2969 z m 3.752,9.5078 c 0.7927,2.1539 1.5587,4.3344 2.2968,6.543 -0.7381,-2.2086 -1.504,-4.3891 -2.2968,-6.543 z m 3.3828,9.8769 c 0.7107,2.2359 1.3947,4.4985 2.0508,6.7891 -0.6561,-2.2906 -1.34,-4.5532 -2.0508,-6.7891 z m 2.0508,6.7891 c 3.2803,11.4523 5.8774,23.5892 7.791,36.4082 -1.9137,-12.8196 -4.5105,-24.9554 -7.791,-36.4082 z m 8.8574,44.1836 c 1.9683,15.7117 2.9512,32.4079 2.9512,50.0879 v 39.7773 0 -39.7793 c 0,-17.6799 -0.9848,-34.3743 -2.9531,-50.0859 z m 2.9512,89.8652 h -386.1465 c -4e-4,8e-4 0,0 0,0 h 386.1485 z m -386.1485,0 h -166.3496 c -226.8927,0 -389.4499,39.2878 -487.6719,117.8652 -97.2396,78.5777 -145.8593,208.2306 -145.8593,388.959 0,146.3506 42.2361,259.3073 126.707,338.8672 62.0728,57.792 143.327,94.5844 243.7519,110.3965 -55.2777,-8.7134 -104.7423,-23.791 -148.4043,-45.2188 79.5382,-102.2758 157.6798,-210.546 233.4825,-324.0156 -13.936,-22.7083 -20.9063,-53.3121 -20.9063,-91.8145 0,-65.8086 18.6639,-111.9741 55.9883,-138.4941 27.6941,-19.6774 72.1679,-32.046 133.3887,-37.123 63.4141,-106.9012 122.147,-213.7025 175.873,-319.4219 z m -175.873,319.4219 c -5e-4,7e-4 0,0 0,0 13.1482,-1.0904 27.0683,-1.8462 41.7578,-2.2656 -14.6937,0.4169 -28.6084,1.1733 -41.7558,2.2637 z M 2769.6055,2615.5 c 0.7267,1.1842 1.4756,2.3412 2.2402,3.4824 -0.7645,-1.141 -1.5136,-2.2984 -2.2402,-3.4824 z m 2.2402,3.4824 c 0.2255,0.3367 0.4587,0.6652 0.6875,0.9981 -0.2289,-0.3329 -0.4619,-0.6614 -0.6875,-0.9981 z m 0.6875,0.9981 c 0.5519,0.8027 1.1126,1.5959 1.6836,2.3769 -0.5709,-0.7809 -1.1319,-1.5743 -1.6836,-2.3769 z m 1.6836,2.3769 c 0.2729,0.3733 0.5469,0.7449 0.8242,1.1133 -0.2773,-0.3683 -0.5513,-0.74 -0.8242,-1.1133 z m 0.8242,1.1133 c 0.5758,0.7648 1.1632,1.5164 1.7578,2.2598 -0.5947,-0.7437 -1.1819,-1.4948 -1.7578,-2.2598 z m 1.7578,2.2598 c 0.2957,0.3697 0.5864,0.7449 0.8867,1.1093 -0.3003,-0.3643 -0.591,-0.7397 -0.8867,-1.1093 z m 0.8867,1.1093 c 0.1543,0.1871 0.3094,0.3729 0.4649,0.5586 -0.1554,-0.1856 -0.3107,-0.3715 -0.4649,-0.5586 z m 0.4649,0.5586 c 0.6621,0.7911 1.3312,1.5742 2.0156,2.3399 -0.6845,-0.7657 -1.3534,-1.5489 -2.0156,-2.3399 z m -93.6231,357.336 c 8.6834,1.3672 17.5104,2.5794 26.4805,3.6328 -8.97,-1.0546 -17.7974,-2.2641 -26.4805,-3.6328 z m 323.4786,-639.3223 c -3.1687,0 -6.3029,0.015 -9.4082,0.043 3.1041,-0.028 6.2402,-0.043 9.4082,-0.043 z m -9.4082,0.043 c -3.0737,0.027 -6.1135,0.069 -9.125,0.123 3.0107,-0.055 6.0518,-0.096 9.125,-0.123 z m -10.1055,0.1445 c -2.7046,0.052 -5.3906,0.1121 -8.0449,0.1856 2.654,-0.074 5.3403,-0.1336 8.0449,-0.1856 z m -208.3184,284.1484 c 0.6918,0.7737 1.4007,1.5296 2.1153,2.2774 -0.7147,-0.7478 -1.4234,-1.5037 -2.1153,-2.2774 z m 2.1153,2.2774 c 0.1514,0.1584 0.3026,0.3173 0.455,0.4746 -0.1525,-0.1574 -0.3035,-0.3161 -0.455,-0.4746 z m 0.455,0.4746 c 0.7161,0.7389 1.4411,1.4664 2.1797,2.1797 -0.7383,-0.7129 -1.4639,-1.4413 -2.1797,-2.1797 z m 2.1797,2.1797 c 0.088,0.085 0.1775,0.1675 0.2657,0.2519 -0.088,-0.084 -0.1778,-0.1671 -0.2657,-0.2519 z m 0.2657,0.2519 c 0.7059,0.6763 1.422,1.3412 2.1484,1.9942 -0.7269,-0.6534 -1.442,-1.3175 -2.1484,-1.9942 z m 2.1484,1.9942 c 0.1018,0.091 0.2024,0.1843 0.3047,0.2754 -0.1022,-0.091 -0.2029,-0.1839 -0.3047,-0.2754 z m 0.3047,0.2754 c 0.7797,0.6947 1.5719,1.3748 2.375,2.0429 -0.8026,-0.6677 -1.5958,-1.3487 -2.375,-2.0429 z m 2.375,2.0429 c 0.1258,0.1047 0.2525,0.2085 0.3789,0.3125 -0.1264,-0.1039 -0.2532,-0.2078 -0.3789,-0.3125 z m 0.3789,0.3125 c 0.8234,0.6777 1.6561,1.3461 2.5039,1.9961 1.903,1.3506 3.9275,2.6577 6.0723,3.9239 -2.1448,-1.2662 -4.1693,-2.5753 -6.0723,-3.9258 -0.848,-0.6501 -1.6804,-1.3164 -2.5039,-1.9942 z m 96.5801,29.9297 c 4.094,0.4741 8.2859,0.9138 12.5957,1.3125 -4.3091,-0.3986 -8.5024,-0.8386 -12.5957,-1.3125 z m 19.5293,1.9141 c 6.8951,0.5593 14.0573,1.0241 21.4765,1.4004 -7.4199,-0.3763 -14.5808,-0.8411 -21.4765,-1.4004 z m -195.2286,316.998 c 2.964,0.3469 5.9403,0.6796 8.9356,0.9922 -2.9944,-0.3129 -5.9725,-0.6449 -8.9356,-0.9922 z m 8.9356,0.9922 c 2.9678,0.3098 5.9526,0.6028 8.9512,0.8789 -2.999,-0.2765 -5.983,-0.5686 -8.9512,-0.8789 z m 8.9512,0.8789 c 0.2487,0.023 0.499,0.046 0.748,0.068 -0.249,-0.023 -0.4992,-0.046 -0.748,-0.068 z m 0.748,0.068 c 2.5971,0.2366 5.2061,0.4585 7.8262,0.6699 -2.6197,-0.2116 -5.2295,-0.4331 -7.8262,-0.6699 z m 7.8262,0.6699 c 0.5544,0.045 1.1086,0.089 1.664,0.1328 -0.5555,-0.044 -1.1095,-0.088 -1.664,-0.1328 z m 1.664,0.1328 c 2.8502,0.2238 5.7107,0.4368 8.5879,0.6309 -2.8776,-0.1944 -5.7373,-0.4068 -8.5879,-0.6309 z m 8.5879,0.6309 c 2.993,0.2019 6.0031,0.3869 9.0254,0.5566 -3.0224,-0.17 -6.0323,-0.3545 -9.0254,-0.5566 z m 9.0254,0.5566 c 0.4456,0.025 0.8937,0.046 1.3399,0.07 -0.4463,-0.024 -0.8943,-0.045 -1.3399,-0.07 z m 1.3399,0.07 c 2.5037,0.1365 5.0172,0.2625 7.541,0.377 -2.5232,-0.1147 -5.0379,-0.2403 -7.541,-0.377 z m 7.541,0.377 c 0.6403,0.029 1.2803,0.058 1.9219,0.086 -0.6418,-0.028 -1.2814,-0.057 -1.9219,-0.086 z m 1.9219,0.086 c 2.7628,0.1191 5.5354,0.2275 8.3222,0.3203 -2.7865,-0.093 -5.5597,-0.2011 -8.3222,-0.3203 z m 8.9296,0.3438 c 2.8227,0.092 5.6606,0.1653 8.5079,0.2304 -2.8471,-0.065 -5.6854,-0.1383 -8.5079,-0.2304 z m 8.5079,0.2304 c 1.0358,0.024 2.0761,0.042 3.1152,0.062 -1.0391,-0.02 -2.0794,-0.039 -3.1152,-0.062 z m 3.1152,0.062 c 2.0291,0.039 4.0639,0.074 6.1055,0.1 -2.0417,-0.026 -4.0763,-0.06 -6.1055,-0.1 z m 6.1055,0.1 c 0.9376,0.012 1.8742,0.024 2.8144,0.033 -0.9403,-0.01 -1.8768,-0.021 -2.8144,-0.033 z m 2.8144,0.033 c 2.9448,0.028 5.8987,0.047 8.8692,0.047 -2.9705,0 -5.9244,-0.019 -8.8692,-0.047 z"
       id="path5308"
       inkscape:connector-curvature="0"
       inkscape:export-xdpi="96"
       inkscape:export-ydpi="96" /></g></svg>